<svg width="56" height="56" viewBox="0 0 56 56" fill="none" xmlns="http://www.w3.org/2000/svg">
<rect width="56" height="56" rx="28" transform="matrix(-1 0 0 1 56 0)" fill="#074CE7"/>
<path d="M18.4206 32.9044C18.6449 32.6655 19.4368 31.9591 20.8926 31.0245C22.3591 30.0818 23.4406 29.494 23.7509 29.3569C23.7782 29.3448 23.8083 29.3403 23.838 29.3441C23.8677 29.3478 23.8958 29.3595 23.9193 29.378C24.419 29.7677 25.2603 30.4836 25.3055 30.5222C25.5968 30.7719 25.5968 30.7719 25.8353 30.6941C26.2546 30.5566 27.5575 29.8648 28.6927 28.727C29.8279 27.5892 30.5554 26.2541 30.6929 25.8352C30.7715 25.5963 30.7715 25.5963 30.521 25.305C30.4823 25.2598 29.766 24.4185 29.3763 23.9192C29.3578 23.8957 29.3461 23.8676 29.3424 23.8379C29.3387 23.8083 29.3431 23.7781 29.3553 23.7508C29.4923 23.4401 30.0801 22.359 31.0229 20.8925C31.9587 19.4372 32.6643 18.6452 32.9032 18.4209C32.9251 18.4003 32.9522 18.3859 32.9816 18.3793C33.0111 18.3727 33.0417 18.3742 33.0703 18.3836C33.9054 18.6706 34.7112 19.0367 35.4766 19.4771C36.2155 19.9066 36.915 20.4006 37.567 20.9531C37.5898 20.9724 37.6068 20.9976 37.6164 21.0259C37.6259 21.0542 37.6276 21.0846 37.6212 21.1138C37.5314 21.5323 37.1021 23.2794 35.7701 25.6994C34.411 28.1693 33.4691 29.4347 31.4732 31.4237C29.4773 33.4127 28.1719 34.4113 25.6995 35.7704C23.2795 37.1025 21.5315 37.5322 21.1139 37.6211C21.0846 37.6274 21.0542 37.6258 21.0258 37.6162C20.9975 37.6067 20.9722 37.5897 20.9527 37.567C20.4003 36.915 19.9065 36.2154 19.4772 35.4765C19.0369 34.7111 18.6707 33.9054 18.3836 33.0703C18.3744 33.0418 18.373 33.0115 18.3795 32.9823C18.386 32.9532 18.4002 32.9263 18.4206 32.9044Z" fill="white"/>
</svg>
