<svg width="52" height="50" viewBox="0 0 52 50" fill="none" xmlns="http://www.w3.org/2000/svg">
<path d="M52 0V1.2122H50.2382C49.1134 1.2122 48.2054 2.08551 48.2054 3.16736C48.2054 3.16736 48.2596 19.4213 48.2054 24.8436C48.1647 29.3144 48.0292 33.4724 41.4699 41.4885V3.1804C41.4699 2.09854 40.5619 1.22523 39.4371 1.22523C38.3122 1.22523 37.4042 2.09854 37.4042 3.1804V45.6074C35.5069 47.1976 33.2979 48.6835 30.6688 49.987V24.9609C30.6688 23.879 29.7607 23.0057 28.6359 23.0057H23.3912C22.2664 23.0057 21.3584 23.879 21.3584 24.9609V50C18.7428 48.6966 16.5066 47.2106 14.6229 45.6074V3.1804C14.6229 2.09854 13.7149 1.22523 12.59 1.22523C11.4652 1.22523 10.5572 2.09854 10.5572 3.1804V41.4885C4.01147 33.4724 3.87594 29.3144 3.82174 24.8566C3.76753 19.4343 3.82174 3.1804 3.82174 3.1804C3.82174 2.09854 2.91373 1.22523 1.7889 1.22523H0V0H25.153V1.22523H23.3912C22.2664 1.22523 21.3584 2.09854 21.3584 3.1804V18.183C21.3584 19.2649 22.2664 20.1382 23.3912 20.1382H28.6359C29.7607 20.1382 30.6688 19.2649 30.6688 18.183V3.1804C30.6688 2.09854 29.7607 1.22523 28.6359 1.22523H26.847V0H52Z" fill="url(#paint0_linear_3271_1658)"/>
<defs>
<linearGradient id="paint0_linear_3271_1658" x1="0" y1="0" x2="54.8472" y2="12.7984" gradientUnits="userSpaceOnUse">
<stop stop-color="#D5D8D5"/>
<stop offset="0.668876" stop-color="#58B8FF"/>
</linearGradient>
</defs>
</svg>
